<?xml version="1.0" encoding="UTF-8"?> <svg xmlns="http://www.w3.org/2000/svg" id="_Слой_2" data-name="Слой 2" viewBox="0 0 163.1 80"><defs><style> .cls-1 { fill: #e4032e; } .cls-2 { fill: #fff; } .cls-3 { fill: none; } </style></defs><g id="menu"><g><g><g><path class="cls-2" d="M132.77,37.37c-.62.61-1.37.91-2.25.91s-1.66-.3-2.28-.9c-.61-.6-.92-1.38-.92-2.35s.31-1.75.92-2.35c.61-.6,1.37-.9,2.28-.9s1.63.3,2.25.91c.62.61.93,1.39.93,2.34s-.31,1.74-.93,2.34M130.52,30.01c-1.44,0-2.66.47-3.65,1.42-1,.94-1.49,2.14-1.49,3.6s.5,2.65,1.49,3.6c.99.94,2.21,1.42,3.65,1.42s2.64-.47,3.62-1.42c.99-.94,1.48-2.14,1.48-3.6s-.49-2.65-1.48-3.6c-.99-.94-2.2-1.42-3.62-1.42M122.05,25.65c-.37,0-.68.12-.92.37-.24.25-.36.55-.36.89s.12.63.36.86c.24.23.55.34.92.34s.66-.11.9-.34c.24-.23.36-.52.36-.86s-.12-.64-.36-.89c-.24-.25-.54-.37-.9-.37M121.05,39.77h1.99v-9.49h-1.99v9.49ZM143.11,30.01c-1.39,0-2.49.48-3.29,1.43v-1.17h-1.99v9.49h1.99v-4.38c0-1.16.25-2.04.76-2.64.5-.6,1.2-.9,2.08-.9.68,0,1.22.24,1.64.71.41.47.62,1.1.62,1.87v5.34h2.01v-5.74c0-1.19-.35-2.15-1.05-2.9-.7-.75-1.62-1.12-2.75-1.12M154.26,34.41l-1.86-.5c-.83-.2-1.24-.59-1.24-1.17,0-.37.13-.66.4-.88.27-.22.63-.33,1.09-.33.54,0,.96.15,1.28.45.32.3.52.69.59,1.16l1.89-.4c-.17-.82-.58-1.48-1.25-1.98-.67-.5-1.51-.76-2.52-.76-1.06,0-1.91.27-2.54.81-.64.54-.96,1.25-.96,2.13,0,1.31.81,2.17,2.43,2.58l1.97.52c.69.18,1.03.54,1.03,1.09,0,.38-.15.7-.45.95-.3.25-.71.37-1.23.37s-.99-.14-1.36-.42c-.37-.28-.59-.7-.65-1.24l-2.01.42c.1.93.52,1.63,1.25,2.1.73.47,1.62.71,2.65.71,1.14,0,2.04-.27,2.73-.8.68-.54,1.02-1.28,1.02-2.24,0-1.33-.76-2.19-2.28-2.58M96.01,39.77h1.99v-15.3h-1.99v15.3ZM90.95,37.37c-.62.61-1.37.91-2.25.91s-1.66-.3-2.28-.9c-.61-.6-.92-1.38-.92-2.35s.31-1.75.92-2.35c.61-.6,1.37-.9,2.28-.9s1.63.3,2.25.91c.62.61.93,1.39.93,2.34s-.31,1.74-.93,2.34M88.7,30.01c-1.44,0-2.66.47-3.65,1.42-.99.94-1.49,2.14-1.49,3.6s.5,2.65,1.49,3.6c.99.94,2.21,1.42,3.65,1.42s2.64-.47,3.63-1.42c.99-.94,1.48-2.14,1.48-3.6s-.49-2.65-1.48-3.6c-.99-.94-2.2-1.42-3.63-1.42M79.96,34.41l-1.86-.5c-.83-.2-1.24-.59-1.24-1.17,0-.37.13-.66.4-.88.27-.22.63-.33,1.09-.33.54,0,.96.15,1.28.45.32.3.52.69.59,1.16l1.89-.4c-.17-.82-.58-1.48-1.25-1.98-.67-.5-1.51-.76-2.52-.76-1.06,0-1.91.27-2.54.81-.64.54-.96,1.25-.96,2.13,0,1.31.81,2.17,2.43,2.58l1.97.52c.69.18,1.03.54,1.03,1.09,0,.38-.15.7-.45.95-.3.25-.71.37-1.23.37s-.99-.14-1.36-.42c-.37-.28-.59-.7-.65-1.24l-2.01.42c.1.93.52,1.63,1.25,2.1.73.47,1.62.71,2.65.71,1.14,0,2.04-.27,2.73-.8.68-.54,1.02-1.28,1.02-2.24,0-1.33-.76-2.19-2.28-2.58M115.41,26l-1.99.61v3.67h-2.05v1.65h2.05v4.76c0,1.06.29,1.88.86,2.47.57.59,1.38.88,2.43.88.77,0,1.54-.24,2.33-.73l-.59-1.66c-.52.34-1.06.52-1.61.52-.45,0-.8-.14-1.05-.43-.26-.29-.38-.68-.38-1.2v-4.61h3.92v-1.65h-3.92v-4.28ZM107.87,34.66c0,1.16-.25,2.04-.75,2.64-.5.6-1.19.9-2.07.9-.69,0-1.24-.24-1.65-.72-.41-.48-.62-1.11-.62-1.88v-5.32h-1.99v5.72c0,1.2.35,2.17,1.04,2.92.7.75,1.62,1.12,2.76,1.12,1.38,0,2.47-.48,3.27-1.43v1.17h1.99v-9.49h-1.99v4.38Z"></path><path class="cls-1" d="M45.48,27.71c-.18.44-.44.96-.77,1.54-.41-.49-.57-1.11-.42-1.89.25-1.25,1.71-.97,1.19.35M21.2,37.39c5.95-5.87,12.94-10.55,14.12-9.3,1.45,1.54-9.87,12.86-18.69,14.31,1.3-1.61,2.83-3.3,4.57-5.01M73.04,44.75c-6.81-1.11-24.19.89-38.93,10.08,12.75-11.23,21.12-15.14,35.27-22.95.81-2.04-2.79-4.65-4.45-3.97-4.37,1.79-13.98,3.71-18.4,2.4,1.38-3.84-.14-5.65-2.36-4.98-1.81.55-3.53,3.22-2.72,6.17.13.48.37.99.72,1.49-1.32,1.74-2.94,3.65-4.72,5.5-9.43,9.82-24.13,18.05-25.97,15.57-.89-1.2,0-4.22,2.52-8.07,10.4,2.13,23.8-8.75,24.6-15.05.48-3.8-3.07-7.08-8.67-5.52-5,1.39-13.88,7.28-18.76,15.71-1.71-2.6-.13-8.23,1.44-10.01-7.06-3.13-8.29,7.82-2.84,12.76-.11.24-.21.48-.31.73-3.76,9.28,1.69,15.66,10.26,12.21,8.07-3.25,19.13-13.91,24.43-22.02,2.14,1.27,5.64,1.91,11.01.57-15.65,9.78-29.44,23.79-30.71,25.66-1.56,2.3.64,6.04,1.77,5.91.99-.11,20.58-18.57,44.64-19.69-1.44,1.76-2.71,2.85-5.28,4.15,2.57,2.14,10.19-1.4,10.49-2.81.27-1.25-1.44-3.55-3.03-3.81"></path></g><rect class="cls-1" x="84.13" y="46.25" width="6.65" height="6.65"></rect><path class="cls-1" d="M100.05,46.25h-2.75v6.65h6.65v-2.75c0-2.16-1.75-3.9-3.9-3.9Z"></path><path class="cls-1" d="M113.93,46.25h-3.49v3.49c0,1.75,1.42,3.16,3.16,3.16h3.49v-3.49c0-1.75-1.42-3.16-3.16-3.16Z"></path><circle class="cls-1" cx="139.5" cy="49.68" r="3.86"></circle><path class="cls-1" d="M126.1,46.44c-1.84,0-3.33,1.49-3.33,3.33s1.49,3.33,3.33,3.33,3.33-1.49,3.33-3.33v-3.33h-3.33Z"></path><g><path class="cls-1" d="M149.32,50.06c0-1.66,1.33-3.24,3.11-3.24,1.42,0,2.56.97,2.56,2.44,0,.87-.68,1.85-1.72,1.85-.92,0-1.43-.59-1.43-1.3-.15,0-.25.25-.25.5,0,.7.83,1.43,1.81,1.43,1.28,0,2.61-1.17,2.61-2.9,0-.93-.39-1.73-.79-2.28-.65-.51-1.47-.81-2.36-.81-2.13,0-3.86,1.73-3.86,3.86,0,1.08.44,2.05,1.15,2.75-.43-.52-.83-1.27-.83-2.29Z"></path><path class="cls-1" d="M155.55,46.84c.43.52.83,1.27.83,2.29,0,1.66-1.33,3.24-3.11,3.24-1.42,0-2.56-.97-2.56-2.44,0-.87.68-1.85,1.72-1.85.92,0,1.43.59,1.43,1.3.15,0,.25-.25.25-.5,0-.7-.83-1.43-1.81-1.43-1.28,0-2.61,1.17-2.61,2.9,0,.93.39,1.73.79,2.29.65.51,1.47.81,2.36.81,2.13,0,3.86-1.73,3.86-3.86,0-1.08-.44-2.05-1.15-2.75Z"></path></g></g><rect class="cls-3" width="163.1" height="80"></rect></g></g></svg> 