<svg width="73" height="8" viewBox="0 0 73 8" fill="none" xmlns="http://www.w3.org/2000/svg">
<path d="M6.65 0.5H0V7.15H6.65V0.5Z" fill="#E4032E"/>
<path d="M15.9202 0.5H13.1702V7.15H19.8202V4.4C19.8202 2.24 18.0702 0.5 15.9202 0.5Z" fill="#E4032E"/>
<path d="M29.8001 0.5H26.3101V3.99C26.3101 5.74 27.7301 7.15 29.4701 7.15H32.9601V3.66C32.9601 1.91 31.5401 0.5 29.8001 0.5Z" fill="#E4032E"/>
<path d="M55.37 7.79007C57.5018 7.79007 59.23 6.06189 59.23 3.93007C59.23 1.79825 57.5018 0.0700684 55.37 0.0700684C53.2382 0.0700684 51.51 1.79825 51.51 3.93007C51.51 6.06189 53.2382 7.79007 55.37 7.79007Z" fill="#E4032E"/>
<path d="M41.9701 0.689941C40.1301 0.689941 38.6401 2.17994 38.6401 4.01994C38.6401 5.85994 40.1301 7.34994 41.9701 7.34994C43.8101 7.34994 45.3001 5.85994 45.3001 4.01994V0.689941H41.9701Z" fill="#E4032E"/>
<path d="M65.1901 4.31C65.1901 2.65 66.5201 1.07 68.3001 1.07C69.7201 1.07 70.8601 2.04 70.8601 3.51C70.8601 4.38 70.1801 5.36 69.1401 5.36C68.2201 5.36 67.7101 4.77 67.7101 4.06C67.5601 4.06 67.4601 4.31 67.4601 4.56C67.4601 5.26 68.2901 5.99 69.2701 5.99C70.5501 5.99 71.8801 4.82 71.8801 3.09C71.8801 2.16 71.4901 1.36 71.0901 0.810001C70.4401 0.300001 69.6201 0 68.7301 0C66.6001 0 64.8701 1.73 64.8701 3.86C64.8701 4.94 65.3101 5.91 66.0201 6.61C65.5901 6.09 65.1901 5.34 65.1901 4.32V4.31Z" fill="#E4032E"/>
<path d="M71.4201 1.09009C71.8501 1.61009 72.2501 2.36009 72.2501 3.38009C72.2501 5.04009 70.9201 6.62009 69.1401 6.62009C67.7201 6.62009 66.5801 5.65009 66.5801 4.18009C66.5801 3.31009 67.26 2.33009 68.3 2.33009C69.22 2.33009 69.7301 2.92009 69.7301 3.63009C69.8801 3.63009 69.9801 3.38009 69.9801 3.13009C69.9801 2.43009 69.1501 1.70009 68.1701 1.70009C66.8901 1.70009 65.5601 2.87009 65.5601 4.60009C65.5601 5.53009 65.9501 6.33009 66.3501 6.89009C67.0001 7.40009 67.8201 7.70009 68.7101 7.70009C70.8401 7.70009 72.5701 5.97009 72.5701 3.84009C72.5701 2.76009 72.1301 1.79009 71.4201 1.09009Z" fill="#E4032E"/>
</svg>
